<mxfile host="app.diagrams.net" modified="2024-06-19T06:20:07.341Z" agent="Mozilla/5.0 (Windows NT 10.0; Win64; x64) AppleWebKit/537.36 (KHTML, like Gecko) Chrome/124.0.0.0 Safari/537.36" etag="2o0D4tpAdEcuX-41MclK" version="24.5.5" type="github">
  <diagram name="Page-1" id="74b105a0-9070-1c63-61bc-23e55f88626e">
    <mxGraphModel dx="1434" dy="746" grid="1" gridSize="10" guides="1" tooltips="1" connect="1" arrows="1" fold="1" page="1" pageScale="1.5" pageWidth="1169" pageHeight="826" background="none" math="0" shadow="0">
      <root>
        <mxCell id="0" style=";html=1;" />
        <mxCell id="1" style=";html=1;" parent="0" />
        <mxCell id="10b056a9c633e61c-30" value="Технологии разработки" style="text;strokeColor=none;fillColor=none;html=1;fontSize=24;fontStyle=1;verticalAlign=middle;align=center;" parent="1" vertex="1">
          <mxGeometry x="80" y="40" width="1590" height="40" as="geometry" />
        </mxCell>
        <mxCell id="MD7Ip3bmCvXTz5mEIPyl-2" value="Front" style="rounded=0;whiteSpace=wrap;html=1;align=left;verticalAlign=top;" vertex="1" parent="1">
          <mxGeometry x="240" y="120" width="360" height="120" as="geometry" />
        </mxCell>
        <mxCell id="MD7Ip3bmCvXTz5mEIPyl-3" value="Razor Pages" style="rounded=1;whiteSpace=wrap;html=1;" vertex="1" parent="1">
          <mxGeometry x="270" y="150" width="120" height="60" as="geometry" />
        </mxCell>
        <mxCell id="MD7Ip3bmCvXTz5mEIPyl-5" value="Back" style="rounded=0;whiteSpace=wrap;html=1;align=left;verticalAlign=top;" vertex="1" parent="1">
          <mxGeometry x="240" y="280" width="360" height="110" as="geometry" />
        </mxCell>
        <mxCell id="MD7Ip3bmCvXTz5mEIPyl-4" value="ASP.NET Core" style="rounded=1;whiteSpace=wrap;html=1;" vertex="1" parent="1">
          <mxGeometry x="270" y="310" width="120" height="60" as="geometry" />
        </mxCell>
        <mxCell id="MD7Ip3bmCvXTz5mEIPyl-6" value="" style="endArrow=classic;startArrow=classic;html=1;rounded=0;exitX=0.222;exitY=0.008;exitDx=0;exitDy=0;exitPerimeter=0;" edge="1" parent="1" source="MD7Ip3bmCvXTz5mEIPyl-5">
          <mxGeometry width="50" height="50" relative="1" as="geometry">
            <mxPoint x="270" y="290" as="sourcePoint" />
            <mxPoint x="320" y="240" as="targetPoint" />
          </mxGeometry>
        </mxCell>
        <mxCell id="MD7Ip3bmCvXTz5mEIPyl-7" value="Domain.Virtual Machine Monitoring Platform" style="rounded=0;whiteSpace=wrap;html=1;align=left;verticalAlign=top;" vertex="1" parent="1">
          <mxGeometry x="120" y="1320" width="780" height="440" as="geometry" />
        </mxCell>
        <mxCell id="MD7Ip3bmCvXTz5mEIPyl-8" value="Домен и доменная модель" style="text;strokeColor=none;fillColor=none;html=1;fontSize=24;fontStyle=1;verticalAlign=middle;align=center;" vertex="1" parent="1">
          <mxGeometry x="80" y="1250" width="1590" height="40" as="geometry" />
        </mxCell>
        <mxCell id="MD7Ip3bmCvXTz5mEIPyl-9" value="Virtual Machine" style="rounded=1;whiteSpace=wrap;html=1;" vertex="1" parent="1">
          <mxGeometry x="250" y="1510" width="160" height="60" as="geometry" />
        </mxCell>
        <mxCell id="MD7Ip3bmCvXTz5mEIPyl-10" value="Virtual Node" style="rounded=1;whiteSpace=wrap;html=1;" vertex="1" parent="1">
          <mxGeometry x="250" y="1420" width="160" height="60" as="geometry" />
        </mxCell>
        <mxCell id="MD7Ip3bmCvXTz5mEIPyl-11" value="User" style="rounded=1;whiteSpace=wrap;html=1;" vertex="1" parent="1">
          <mxGeometry x="630" y="1420" width="160" height="60" as="geometry" />
        </mxCell>
        <mxCell id="MD7Ip3bmCvXTz5mEIPyl-13" value="Domain Controller" style="rounded=1;whiteSpace=wrap;html=1;" vertex="1" parent="1">
          <mxGeometry x="430" y="1420" width="160" height="60" as="geometry" />
        </mxCell>
        <mxCell id="MD7Ip3bmCvXTz5mEIPyl-14" value="Domain Model" style="rounded=1;whiteSpace=wrap;html=1;" vertex="1" parent="1">
          <mxGeometry x="450" y="1510" width="120" height="60" as="geometry" />
        </mxCell>
        <mxCell id="MD7Ip3bmCvXTz5mEIPyl-16" value="" style="endArrow=classic;html=1;rounded=0;entryX=1;entryY=1;entryDx=0;entryDy=0;" edge="1" parent="1" target="MD7Ip3bmCvXTz5mEIPyl-10">
          <mxGeometry width="50" height="50" relative="1" as="geometry">
            <mxPoint x="450" y="1520" as="sourcePoint" />
            <mxPoint x="500" y="1470" as="targetPoint" />
          </mxGeometry>
        </mxCell>
        <mxCell id="MD7Ip3bmCvXTz5mEIPyl-17" value="" style="endArrow=classic;html=1;rounded=0;entryX=0.994;entryY=0.65;entryDx=0;entryDy=0;entryPerimeter=0;" edge="1" parent="1" target="MD7Ip3bmCvXTz5mEIPyl-9">
          <mxGeometry width="50" height="50" relative="1" as="geometry">
            <mxPoint x="450" y="1550" as="sourcePoint" />
            <mxPoint x="500" y="1500" as="targetPoint" />
          </mxGeometry>
        </mxCell>
        <mxCell id="MD7Ip3bmCvXTz5mEIPyl-18" value="" style="endArrow=classic;html=1;" edge="1" parent="1" target="MD7Ip3bmCvXTz5mEIPyl-13">
          <mxGeometry width="50" height="50" relative="1" as="geometry">
            <mxPoint x="510" y="1510" as="sourcePoint" />
            <mxPoint x="560" y="1460" as="targetPoint" />
          </mxGeometry>
        </mxCell>
        <mxCell id="MD7Ip3bmCvXTz5mEIPyl-19" value="" style="endArrow=classic;html=1;entryX=0;entryY=1;entryDx=0;entryDy=0;" edge="1" parent="1" target="MD7Ip3bmCvXTz5mEIPyl-11">
          <mxGeometry width="50" height="50" relative="1" as="geometry">
            <mxPoint x="570" y="1530" as="sourcePoint" />
            <mxPoint x="620" y="1480" as="targetPoint" />
          </mxGeometry>
        </mxCell>
        <mxCell id="MD7Ip3bmCvXTz5mEIPyl-20" value="..." style="rounded=1;whiteSpace=wrap;html=1;" vertex="1" parent="1">
          <mxGeometry x="250" y="1600" width="160" height="60" as="geometry" />
        </mxCell>
        <mxCell id="MD7Ip3bmCvXTz5mEIPyl-21" value="..." style="rounded=1;whiteSpace=wrap;html=1;" vertex="1" parent="1">
          <mxGeometry x="430" y="1600" width="160" height="60" as="geometry" />
        </mxCell>
        <mxCell id="MD7Ip3bmCvXTz5mEIPyl-22" value="..." style="rounded=1;whiteSpace=wrap;html=1;" vertex="1" parent="1">
          <mxGeometry x="630" y="1600" width="160" height="60" as="geometry" />
        </mxCell>
        <mxCell id="MD7Ip3bmCvXTz5mEIPyl-23" value="..." style="rounded=1;whiteSpace=wrap;html=1;" vertex="1" parent="1">
          <mxGeometry x="630" y="1510" width="160" height="60" as="geometry" />
        </mxCell>
      </root>
    </mxGraphModel>
  </diagram>
</mxfile>
